<svg width="79" height="78" viewBox="0 0 79 78" fill="none" xmlns="http://www.w3.org/2000/svg">
<path d="M5.36514 36.3918L6.9949 36.4106L6.98615 37.1657L6.04857 37.1549L6.00944 40.534L6.94702 40.5448L6.9382 41.3062L5.30852 41.281L5.3107 41.0923C5.30132 40.8153 5.1001 40.6199 4.70703 40.5063C4.30982 40.3884 3.7422 40.3126 3.00417 40.2789L1.60782 40.2124L1.6452 36.9843L5.35778 37.0273L5.36514 36.3918ZM3.08799 39.5624C3.65827 39.59 4.13386 39.6417 4.51478 39.7174C4.89151 39.7931 5.16077 39.9095 5.32258 40.0666L5.34845 37.8328L2.32805 37.7978L2.30808 39.5219L3.08799 39.5624Z" fill="#0C6C97"/>
<path d="M2.85091 35.4328L2.94166 34.6514L6.27964 35.0391L6.18889 35.8205L2.85091 35.4328ZM2.34657 34.9751C2.33011 35.1168 2.27256 35.2305 2.17392 35.3161C2.0711 35.4013 1.95302 35.4362 1.81967 35.4207C1.68632 35.4052 1.58145 35.3445 1.50507 35.2385C1.42452 35.132 1.39248 35.0079 1.40893 34.8662C1.42539 34.7245 1.48294 34.6108 1.58159 34.5251C1.67606 34.439 1.7879 34.4034 1.91708 34.4184C2.0546 34.4344 2.16572 34.4958 2.25043 34.6028C2.33146 34.7051 2.36351 34.8292 2.34657 34.9751Z" fill="#0C6C97"/>
<path d="M5.11097 31.5169C5.2102 31.3229 5.33684 31.1838 5.49092 31.0994C5.64171 31.0101 5.80756 30.9838 5.98848 31.0205C6.18995 31.0613 6.35506 31.1654 6.48381 31.3328C6.60845 31.4993 6.68978 31.7105 6.7278 31.9665C6.76582 32.2225 6.754 32.5026 6.69234 32.8069C6.64068 33.0618 6.56149 33.3047 6.45477 33.5356C6.34394 33.7657 6.21301 33.9682 6.062 34.1431L5.53341 33.8048C5.65637 33.6628 5.76293 33.496 5.85309 33.3046C5.94326 33.1131 6.00876 32.9166 6.04958 32.7151C6.10208 32.4561 6.10384 32.2467 6.05488 32.087C6.00264 31.9223 5.90662 31.8258 5.76683 31.7974C5.63936 31.7716 5.52902 31.8092 5.43579 31.9101C5.34339 32.007 5.27637 32.1582 5.23471 32.3638L5.10473 33.0052L4.58665 32.9002L4.70413 32.3205C4.74329 32.1272 4.74081 31.9705 4.69669 31.8503C4.6534 31.7259 4.57213 31.6517 4.45289 31.6275C4.33365 31.6033 4.22575 31.65 4.12919 31.7674C4.03263 31.8848 3.96102 32.0586 3.91436 32.2889C3.8477 32.6178 3.85747 32.9815 3.94368 33.3799L3.33627 33.4623C3.22228 32.9897 3.20986 32.5335 3.29901 32.0935C3.35567 31.8139 3.44556 31.571 3.56867 31.3648C3.68768 31.1578 3.82958 31.0068 3.99437 30.9118C4.15589 30.8118 4.32505 30.7797 4.50185 30.8155C4.66221 30.848 4.79612 30.9265 4.90358 31.0511C5.00694 31.1747 5.07607 31.33 5.11097 31.5169Z" fill="#0C6C97"/>
<path d="M3.89921 29.5409L4.14485 28.7936L5.44213 29.22L5.97075 27.6119L4.67347 27.1854L4.91911 26.4382L8.11148 27.4875L7.86584 28.2348L6.60444 27.8202L6.07582 29.4283L7.33722 29.843L7.09158 30.5902L3.89921 29.5409Z" fill="#0C6C97"/>
<path d="M6.08159 23.6418C6.29628 23.1957 6.56775 22.9073 6.89603 22.7767C7.22234 22.6404 7.60097 22.6759 8.03192 22.8834L9.80675 23.7375L9.48473 24.4066L9.11615 24.2293C9.20662 24.3799 9.24865 24.5538 9.24224 24.7509C9.23387 24.9424 9.17511 25.1516 9.06594 25.3784C8.95678 25.6052 8.82347 25.7855 8.66599 25.9192C8.50473 26.0511 8.33332 26.1315 8.15175 26.1606C7.96821 26.184 7.7895 26.1538 7.61561 26.0701C7.34343 25.9391 7.17428 25.7344 7.10815 25.4558C7.04006 25.1716 7.11063 24.8121 7.31986 24.3774L7.69647 23.5949L7.6511 23.573C7.43941 23.4712 7.24593 23.4572 7.07066 23.5311C6.89722 23.6013 6.75045 23.7611 6.63038 24.0106C6.54851 24.1808 6.49401 24.3617 6.46688 24.5535C6.44157 24.7415 6.44888 24.915 6.4888 25.0739L5.83908 25.1034C5.79452 24.8864 5.79378 24.6509 5.83686 24.397C5.87994 24.143 5.96151 23.8913 6.08159 23.6418ZM8.62089 24.9826C8.7064 24.8049 8.74221 24.6289 8.72833 24.4546C8.71248 24.2748 8.64259 24.1201 8.51867 23.9906L8.16711 23.8214L7.81506 24.5529C7.61857 24.9611 7.65453 25.2299 7.92292 25.359C8.05145 25.4209 8.17808 25.419 8.30281 25.3533C8.42754 25.2876 8.53357 25.1641 8.62089 24.9826Z" fill="#0C6C97"/>
<path d="M9.46637 19.0756L8.84196 20.073L11.1249 21.5022L10.7075 22.1689L8.42458 20.7398L7.79683 21.7426L7.23143 21.3886L8.90097 18.7216L9.46637 19.0756Z" fill="#0C6C97"/>
<path d="M9.47733 17.8551L9.96969 17.2417L11.6972 18.6281L11.1317 15.7939L11.5807 15.2344L14.2014 17.3377L13.7091 17.9512L11.9815 16.5647L12.5511 19.3941L12.0981 19.9585L9.47733 17.8551Z" fill="#0C6C97"/>
<path d="M16.1216 15.4284C15.8727 15.6719 15.598 15.838 15.2974 15.9267C14.9968 16.0154 14.7001 16.021 14.4072 15.9437C14.1114 15.8633 13.8476 15.7047 13.6158 15.4678C13.384 15.2309 13.2327 14.9652 13.1617 14.6707C13.0908 14.3763 13.1014 14.0812 13.1936 13.7855C13.2888 13.4869 13.4624 13.2144 13.7143 12.9679C13.9512 12.7362 14.205 12.5817 14.4758 12.5045C14.7496 12.4245 15.0195 12.4304 15.2855 12.5223L15.1002 13.1967C14.9227 13.1532 14.755 13.1558 14.5973 13.2045C14.4396 13.2473 14.2992 13.3288 14.1763 13.4491C13.9664 13.6545 13.8599 13.8937 13.857 14.1666C13.8511 14.4365 13.9596 14.6854 14.1826 14.9133C14.4056 15.1412 14.652 15.2581 14.9219 15.264C15.1919 15.264 15.4333 15.1598 15.6462 14.9515C15.7692 14.8312 15.8552 14.6942 15.9044 14.5404C15.9536 14.3808 15.9584 14.2117 15.9188 14.0333L16.597 13.8627C16.6801 14.1335 16.6801 14.4065 16.597 14.6815C16.514 14.9505 16.3555 15.1995 16.1216 15.4284Z" fill="#0C6C97"/>
<path d="M17.4857 11.2103C17.8233 10.9474 18.1407 10.8224 18.438 10.8355C18.7387 10.8459 18.9972 10.9902 19.2138 11.2682C19.4406 11.5594 19.5166 11.8618 19.4418 12.1754C19.367 12.4889 19.1479 12.7845 18.7845 13.0622L17.5395 14.024L15.4746 11.3729L16.0951 10.8895L16.7718 11.7583L17.4857 11.2103ZM18.3741 12.648C18.5588 12.5095 18.6681 12.3632 18.7022 12.209C18.7364 12.0548 18.6941 11.9016 18.5755 11.7493C18.4595 11.6004 18.3281 11.5273 18.1813 11.53C18.0345 11.5326 17.8655 11.6058 17.6742 11.7494L17.1044 12.1853L17.8043 13.0839L18.3741 12.648Z" fill="#0C6C97"/>
<path d="M21.8495 7.24126C22.1304 7.09036 22.4108 7.0183 22.6906 7.0251C22.9685 7.0282 23.2242 7.10515 23.4576 7.25596C23.6947 7.40479 23.8877 7.61779 24.0366 7.89496C24.1895 8.17953 24.259 8.46842 24.2451 8.76164C24.2292 9.05117 24.1339 9.32144 23.9592 9.57246C23.7845 9.82347 23.5438 10.0314 23.2371 10.1962C22.7234 10.4722 22.2348 10.5156 21.7712 10.3265C21.3077 10.1374 20.9041 9.7232 20.5606 9.08385C20.241 8.48885 20.1153 7.94915 20.1837 7.46475C20.252 6.98036 20.5188 6.54175 20.984 6.14893L22.201 5.1165L22.6343 5.68376L21.524 6.60888C21.2053 6.8754 21.0048 7.145 20.9228 7.4177C20.8407 7.6904 20.8712 7.99545 21.0144 8.33286C21.0621 8.10247 21.1573 7.89414 21.3001 7.70787C21.4409 7.51792 21.6241 7.36238 21.8495 7.24126ZM22.9529 9.62736C23.2079 9.49035 23.3693 9.29885 23.4372 9.05285C23.5067 8.80116 23.473 8.54782 23.336 8.29282C23.199 8.03782 23.0094 7.8754 22.767 7.80556C22.5284 7.73373 22.2816 7.76632 22.0266 7.90333C21.7679 8.04232 21.6008 8.23211 21.5253 8.47271C21.4498 8.7133 21.4805 8.9611 21.6175 9.2161C21.7565 9.4748 21.9491 9.64276 22.1954 9.71999C22.4454 9.79524 22.6979 9.76436 22.9529 9.62736Z" fill="#0C6C97"/>
<path d="M24.6664 5.68855L25.3931 5.38755L26.679 8.4922L25.9523 8.79321L24.6664 5.68855ZM24.8208 5.02522C24.689 5.0798 24.5617 5.08485 24.4388 5.04038C24.3143 4.99203 24.2264 4.90584 24.1751 4.78181C24.1237 4.65778 24.1257 4.53661 24.1811 4.41829C24.235 4.29609 24.3278 4.2077 24.4596 4.15312C24.5913 4.09854 24.7187 4.09348 24.8415 4.13796C24.9628 4.17855 25.0483 4.25893 25.0981 4.37908C25.151 4.50699 25.1514 4.63398 25.0992 4.76005C25.0492 4.88064 24.9564 4.96903 24.8208 5.02522Z" fill="#0C6C97"/>
<path d="M29.6203 3.93735L30.6214 7.1452L29.8705 7.37953L29.0681 4.80845L27.8667 5.18338L28.0353 5.82952C28.1478 6.26027 28.219 6.6292 28.2489 6.93629C28.2816 7.23813 28.2541 7.49502 28.1664 7.70696C28.0815 7.91365 27.9188 8.05449 27.6786 8.12948C27.5664 8.16447 27.4214 8.18556 27.2434 8.19275L27.0826 7.55075C27.1425 7.54526 27.1924 7.53627 27.2324 7.52378C27.3846 7.47628 27.48 7.38059 27.5186 7.2367C27.556 7.08881 27.5584 6.92764 27.5259 6.75319C27.4962 6.57348 27.44 6.32294 27.3573 6.00156L27.0252 4.7472L29.6203 3.93735Z" fill="#0C6C97"/>
<path d="M33.383 4.42859C33.8037 4.35003 34.143 4.3848 34.4012 4.5329C34.6634 4.68024 34.8269 4.92712 34.8916 5.27353C34.9594 5.63644 34.888 5.93998 34.6776 6.18414C34.4671 6.42831 34.1367 6.59031 33.6865 6.67014L32.1388 6.9528L31.5218 3.64951L32.2951 3.50509L32.4973 4.58763L33.383 4.42859ZM33.5121 6.11375C33.7397 6.07551 33.9041 5.99573 34.0052 5.87442C34.1063 5.7531 34.1391 5.5976 34.1037 5.40789C34.069 5.22232 33.9859 5.09701 33.8542 5.03197C33.7226 4.96694 33.5388 4.95431 33.303 4.99409L32.5966 5.11962L32.8058 6.23927L33.5121 6.11375Z" fill="#0C6C97"/>
<path d="M40.8761 2.66639L40.9928 6.02478L36.0433 6.19677L35.9266 2.83838L36.7127 2.81106L36.8063 5.50281L38.1081 5.45757L38.0146 2.76582L38.8007 2.73851L38.8943 5.43025L40.1835 5.38545L40.09 2.69371L40.8761 2.66639Z" fill="#0C6C97"/>
<path d="M45.4156 4.82648C45.4093 4.88065 45.3962 4.95726 45.3762 5.05631L42.7571 4.7521C42.7744 5.00329 42.8704 5.21295 43.0452 5.38107C43.2246 5.5455 43.458 5.64442 43.7456 5.67782C44.1123 5.72041 44.4285 5.63465 44.6941 5.42054L45.057 5.95051C44.8861 6.11227 44.6808 6.22569 44.4409 6.29074C44.2011 6.3558 43.9374 6.37163 43.6499 6.33824C43.2831 6.29564 42.9687 6.1852 42.7064 6.00692C42.4441 5.82863 42.2509 5.60135 42.1267 5.32507C42.0072 5.04511 41.9665 4.74052 42.0048 4.41131C42.0425 4.08626 42.1493 3.80302 42.3252 3.56159C42.5057 3.31648 42.7357 3.13624 43.0152 3.02088C43.2947 2.90552 43.599 2.86696 43.9282 2.9052C44.2533 2.94295 44.5344 3.04952 44.7717 3.2249C45.0136 3.3966 45.1902 3.62194 45.3014 3.90094C45.4172 4.17625 45.4553 4.48476 45.4156 4.82648ZM43.8556 3.53029C43.6056 3.50125 43.3843 3.55157 43.1919 3.68126C43.0041 3.80727 42.8772 3.99103 42.8111 4.23255L44.7051 4.45254C44.6999 4.20696 44.6205 3.99924 44.4671 3.82938C44.3137 3.65951 44.1098 3.55981 43.8556 3.53029Z" fill="#0C6C97"/>
<path d="M51.458 4.5724L50.5056 7.79502L49.7573 7.57385L50.5206 4.99093L48.9335 4.52184L48.1701 7.10476L47.4157 6.88181L48.3682 3.65919L51.458 4.5724Z" fill="#0C6C97"/>
<path d="M54.7567 5.8409C55.0551 5.97508 55.2918 6.15969 55.4667 6.39473C55.6455 6.63148 55.7485 6.89858 55.7757 7.19603C55.803 7.49347 55.747 7.79716 55.6076 8.10709C55.4683 8.41702 55.2774 8.66242 55.0351 8.84326C54.7945 9.02028 54.5264 9.12051 54.2307 9.14395C53.9388 9.1691 53.6436 9.11459 53.3451 8.9804C52.9319 8.79461 52.6667 8.50977 52.5495 8.1259L51.8811 9.61243L51.1637 9.28987L53.0423 5.11151L53.7253 5.41859L53.5447 5.82035C53.7287 5.72828 53.9231 5.6846 54.128 5.68932C54.3367 5.69575 54.5462 5.74628 54.7567 5.8409ZM53.5409 8.33015C53.8049 8.44885 54.0607 8.45805 54.3082 8.35773C54.5595 8.25913 54.7497 8.06635 54.8787 7.77937C55.0077 7.4924 55.0257 7.22219 54.9327 6.96877C54.8434 6.71706 54.6668 6.53186 54.4028 6.41316C54.2306 6.33574 54.0576 6.30625 53.8837 6.32467C53.7115 6.33926 53.5526 6.4012 53.4069 6.51047C53.2612 6.61975 53.1453 6.77004 53.0593 6.96136C52.9732 7.15267 52.9377 7.3391 52.9527 7.52062C52.9677 7.70215 53.026 7.86406 53.1276 8.00634C53.231 8.1448 53.3687 8.25274 53.5409 8.33015Z" fill="#0C6C97"/>
<path d="M57.0893 10.9502C56.7999 10.772 56.5777 10.5489 56.4225 10.2809C56.2673 10.0129 56.1918 9.72742 56.196 9.42455C56.206 9.1203 56.2979 8.82707 56.4717 8.54487C56.6454 8.26266 56.8648 8.05041 57.1298 7.90813C57.3984 7.76804 57.6873 7.70698 57.9965 7.72495C58.3057 7.74291 58.6049 7.84099 58.8943 8.01917C59.1872 8.19956 59.4113 8.42377 59.5665 8.69179C59.7217 8.95981 59.7954 9.24415 59.7876 9.54483C59.7834 9.8477 59.6944 10.1402 59.5206 10.4225C59.3468 10.7047 59.1245 10.9176 58.8537 11.0612C58.5887 11.2035 58.3017 11.2657 57.9925 11.2477C57.6833 11.2298 57.3822 11.1306 57.0893 10.9502ZM57.4424 10.3769C57.6889 10.5286 57.9431 10.5719 58.205 10.5065C58.467 10.4412 58.6804 10.2746 58.8454 10.0067C59.0104 9.73876 59.0631 9.47314 59.0036 9.20982C58.944 8.94651 58.791 8.73895 58.5445 8.58716C58.298 8.43537 58.0438 8.39214 57.7819 8.45747C57.5235 8.525 57.3118 8.69272 57.1468 8.96064C56.9818 9.22856 56.9273 9.49308 56.9833 9.75419C57.0429 10.0175 57.1959 10.2251 57.4424 10.3769Z" fill="#0C6C97"/>
<path d="M63.8718 11.942C64.1108 12.1531 64.2756 12.3911 64.3663 12.6559C64.4598 12.9177 64.4762 13.1841 64.4157 13.4554C64.3584 13.7294 64.2255 13.9843 64.0172 14.2201C63.8033 14.4622 63.5565 14.6276 63.2766 14.7162C62.9996 14.8017 62.713 14.8061 62.417 14.7293C62.121 14.6525 61.8425 14.4988 61.5815 14.2682C61.1445 13.8821 60.9343 13.4389 60.9509 12.9386C60.9675 12.4382 61.2161 11.9161 61.6966 11.3721C62.1438 10.866 62.6064 10.5609 63.0845 10.4571C63.5625 10.3532 64.0664 10.4513 64.5962 10.7514L65.9866 11.5348L65.6048 12.138L64.3521 11.4174C63.9916 11.2109 63.6692 11.1164 63.3849 11.134C63.1007 11.1515 62.8252 11.286 62.5584 11.5373C62.791 11.5021 63.0194 11.5192 63.2436 11.5885C63.4707 11.6547 63.68 11.7726 63.8718 11.942ZM62.0165 13.8044C62.2334 13.9961 62.469 14.0811 62.7233 14.0594C62.9835 14.0374 63.2094 13.9179 63.4011 13.7009C63.5927 13.484 63.6793 13.2498 63.6608 12.9983C63.6454 12.7496 63.5292 12.5294 63.3123 12.3377C63.0922 12.1433 62.8562 12.0524 62.6044 12.065C62.3525 12.0776 62.1308 12.1924 61.9391 12.4093C61.7447 12.6294 61.6539 12.8683 61.6669 13.1261C61.683 13.3866 61.7996 13.6128 62.0165 13.8044Z" fill="#0C6C97"/>
<path d="M67.3774 15.1795C67.5923 15.4263 67.73 15.693 67.7904 15.9797C67.8536 16.2695 67.8354 16.5552 67.7356 16.8367C67.6358 17.1183 67.4578 17.3706 67.2015 17.5938C66.9452 17.8169 66.6692 17.9599 66.3734 18.0227C66.0808 18.0827 65.7954 18.0615 65.517 17.959C65.2414 17.8596 64.9961 17.6865 64.7812 17.4397C64.4837 17.098 64.3621 16.7283 64.4164 16.3306L63.1871 17.4008L62.6706 16.8076L66.1258 13.7994L66.6175 14.3642L66.2853 14.6534C66.4909 14.6468 66.6858 14.6886 66.8699 14.7786C67.0567 14.8718 67.2259 15.0054 67.3774 15.1795ZM65.2312 16.9312C65.4213 17.1495 65.6497 17.2649 65.9165 17.2774C66.186 17.2931 66.4394 17.1976 66.6767 16.991C66.914 16.7844 67.0435 16.5465 67.0651 16.2774C67.0894 16.0115 67.0065 15.7693 66.8165 15.551C66.6925 15.4086 66.5477 15.3094 66.3821 15.2534C66.2196 15.1945 66.0494 15.1843 65.8713 15.2225C65.6932 15.2607 65.525 15.3487 65.3668 15.4864C65.2086 15.6242 65.0983 15.7786 65.0359 15.9497C64.9736 16.1209 64.9587 16.2923 64.9915 16.4641C65.0273 16.6331 65.1073 16.7888 65.2312 16.9312Z" fill="#0C6C97"/>
<path d="M69.6529 21.1696C69.6075 21.1999 69.5406 21.2395 69.4522 21.2884L67.9882 19.0955C67.808 19.2713 67.7103 19.4803 67.6954 19.7223C67.6862 19.9655 67.762 20.2074 67.9228 20.4482C68.1277 20.7552 68.3978 20.9407 68.733 21.0044L68.5641 21.6241C68.3302 21.5987 68.1108 21.5156 67.9059 21.375C67.701 21.2343 67.5182 21.0436 67.3575 20.8029C67.1525 20.4958 67.033 20.1847 66.9991 19.8694C66.9651 19.554 67.0132 19.2596 67.1434 18.9861C67.2793 18.7137 67.4851 18.4856 67.7608 18.3015C68.0329 18.1198 68.3179 18.0178 68.6158 17.9955C68.9195 17.9744 69.2057 18.033 69.4746 18.1713C69.7435 18.3095 69.9699 18.5165 70.154 18.7921C70.3357 19.0643 70.4365 19.3476 70.4565 19.6419C70.4823 19.9375 70.4248 20.2179 70.2842 20.4833C70.1494 20.7498 69.939 20.9786 69.6529 21.1696ZM69.6306 19.1416C69.4908 18.9322 69.3092 18.7962 69.0858 18.7335C68.8681 18.672 68.6459 18.6942 68.4191 18.8003L69.4778 20.3861C69.6615 20.2231 69.7685 20.0281 69.7986 19.8012C69.8287 19.5743 69.7727 19.3544 69.6306 19.1416Z" fill="#0C6C97"/>
<path d="M71.7479 21.3655L72.0969 22.0705L70.8731 22.6764L71.6241 24.1934L72.8479 23.5876L73.1969 24.2925L70.1853 25.7834L69.8363 25.0785L71.0263 24.4894L70.2753 22.9723L69.0853 23.5614L68.7363 22.8565L71.7479 21.3655Z" fill="#0C6C97"/>
<path d="M72.429 30.0234L71.0873 30.4757L70.8521 29.778L71.5617 29.5387L70.7336 27.0819L70.0239 27.3211L69.7908 26.6294L71.1325 26.1771L71.1828 26.3262C71.259 26.5262 71.4345 26.6198 71.7091 26.607C71.989 26.5967 72.3635 26.5258 72.8327 26.3942L73.938 26.0681L74.8225 28.6919L72.2702 29.5523L72.429 30.0234ZM73.0082 27.0921C72.6371 27.1995 72.3289 27.2702 72.0835 27.3042C71.8382 27.3382 71.6405 27.3163 71.4903 27.2385L72.019 28.8069L73.9391 28.1596L73.5271 26.9371L73.0082 27.0921Z" fill="#0C6C97"/>
<path d="M73.3106 41.4378L71.6809 41.4189L71.6896 40.6638L72.6272 40.6747L72.6663 37.2956L71.7288 37.2848L71.7376 36.5234L73.3673 36.5485L73.3651 36.7373C73.3745 37.0143 73.5757 37.2097 73.9687 37.3233C74.366 37.4412 74.9336 37.517 75.6716 37.5507L77.068 37.6172L77.0306 40.8453L73.318 40.8023L73.3106 41.4378ZM75.5878 38.2672C75.0175 38.2396 74.5419 38.1879 74.161 38.1122C73.7843 38.0365 73.515 37.9201 73.3532 37.763L73.3273 39.9968L76.3477 40.0318L76.3677 38.3077L75.5878 38.2672Z" fill="#0C6C97"/>
<path d="M75.8249 42.3968L75.7341 43.1782L72.3961 42.7905L72.4869 42.0091L75.8249 42.3968ZM76.3292 42.8545C76.3457 42.7128 76.4032 42.5991 76.5019 42.5135C76.6047 42.4283 76.7228 42.3934 76.8561 42.4089C76.9895 42.4244 77.0943 42.4851 77.1707 42.5911C77.2513 42.6976 77.2833 42.8217 77.2668 42.9634C77.2504 43.1051 77.1928 43.2188 77.0942 43.3045C76.9997 43.3906 76.8879 43.4262 76.7587 43.4112C76.6212 43.3952 76.5101 43.3338 76.4253 43.2268C76.3443 43.1245 76.3123 43.0004 76.3292 42.8545Z" fill="#0C6C97"/>
<path d="M73.5648 46.3127C73.4656 46.5067 73.3389 46.6458 73.1849 46.7301C73.0341 46.8194 72.8682 46.8458 72.6873 46.8091C72.4858 46.7683 72.3207 46.6642 72.192 46.4968C72.0673 46.3303 71.986 46.1191 71.948 45.8631C71.91 45.6071 71.9218 45.327 71.9834 45.0227C72.0351 44.7678 72.1143 44.5249 72.221 44.294C72.3318 44.0639 72.4628 43.8614 72.6138 43.6865L73.1424 44.0248C73.0194 44.1668 72.9129 44.3336 72.8227 44.525C72.7325 44.7165 72.667 44.913 72.6262 45.1145C72.5737 45.3735 72.5719 45.5829 72.6209 45.7426C72.6731 45.9073 72.7692 46.0038 72.909 46.0322C73.0364 46.058 73.1468 46.0204 73.24 45.9194C73.3324 45.8226 73.3994 45.6714 73.4411 45.4658L73.5711 44.8244L74.0891 44.9294L73.9716 45.5091C73.9325 45.7024 73.935 45.8591 73.9791 45.9793C74.0224 46.1037 74.1037 46.1779 74.2229 46.2021C74.3421 46.2263 74.45 46.1796 74.5466 46.0622C74.6432 45.9448 74.7148 45.771 74.7614 45.5407C74.8281 45.2118 74.8183 44.8481 74.7321 44.4497L75.3395 44.3673C75.4535 44.8398 75.4659 45.2961 75.3768 45.736C75.3201 46.0156 75.2302 46.2585 75.1071 46.4647C74.9881 46.6718 74.8462 46.8228 74.6814 46.9178C74.5199 47.0178 74.3507 47.0499 74.1739 47.014C74.0136 46.9815 73.8797 46.903 73.7722 46.7785C73.6688 46.6549 73.5997 46.4996 73.5648 46.3127Z" fill="#0C6C97"/>
<path d="M74.7766 48.2887L74.5309 49.036L73.2337 48.6096L72.705 50.2177L74.0023 50.6442L73.7567 51.3914L70.5643 50.3421L70.8099 49.5948L72.0713 50.0094L72.6 48.4013L71.3386 47.9866L71.5842 47.2394L74.7766 48.2887Z" fill="#0C6C97"/>
<path d="M72.5942 54.1878C72.3795 54.6339 72.108 54.9223 71.7798 55.0529C71.4534 55.1892 71.0748 55.1536 70.6439 54.9462L68.869 54.0921L69.1911 53.4229L69.5596 53.6003C69.4692 53.4497 69.4271 53.2758 69.4335 53.0787C69.4419 52.8872 69.5007 52.678 69.6098 52.4512C69.719 52.2244 69.8523 52.0441 70.0098 51.9104C70.171 51.7785 70.3425 51.698 70.524 51.669C70.7076 51.6456 70.8863 51.6758 71.0602 51.7595C71.3324 51.8904 71.5015 52.0952 71.5676 52.3738C71.6357 52.658 71.5651 53.0175 71.3559 53.4522L70.9793 54.2347L71.0247 54.2565C71.2364 54.3584 71.4299 54.3724 71.6051 54.2984C71.7786 54.2283 71.9253 54.0684 72.0454 53.8189C72.1273 53.6488 72.1818 53.4679 72.2089 53.2761C72.2342 53.0881 72.2269 52.9146 72.187 52.7557L72.8367 52.7262C72.8813 52.9432 72.882 53.1787 72.8389 53.4326C72.7958 53.6866 72.7143 53.9383 72.5942 54.1878ZM70.0549 52.847C69.9694 53.0247 69.9336 53.2006 69.9475 53.3749C69.9633 53.5548 70.0332 53.7095 70.1571 53.839L70.5087 54.0082L70.8607 53.2767C71.0572 52.8685 71.0213 52.5997 70.7529 52.4706C70.6243 52.4087 70.4977 52.4106 70.373 52.4763C70.2482 52.542 70.1422 52.6655 70.0549 52.847Z" fill="#0C6C97"/>
<path d="M69.2094 58.754L69.8338 57.7565L67.5509 56.3274L67.9683 55.6607L70.2512 57.0898L70.879 56.087L71.4444 56.441L69.7748 59.1079L69.2094 58.754Z" fill="#0C6C97"/>
<path d="M69.1984 59.9745L68.7061 60.5879L66.9786 59.2015L67.5441 62.0357L67.0951 62.5952L64.4743 60.4919L64.9667 59.8784L66.6942 61.2649L66.1247 58.4355L66.5777 57.8711L69.1984 59.9745Z" fill="#0C6C97"/>
<path d="M62.5542 62.4012C62.803 62.1577 63.0778 61.9916 63.3784 61.9029C63.679 61.8142 63.9757 61.8086 64.2686 61.8859C64.5644 61.9663 64.8282 62.1249 65.06 62.3618C65.2917 62.5987 65.4431 62.8644 65.5141 63.1589C65.585 63.4533 65.5744 63.7484 65.4822 64.0441C65.3869 64.3427 65.2134 64.6152 64.9615 64.8616C64.7246 65.0934 64.4708 65.2479 64.1999 65.325C63.9261 65.4051 63.6562 65.3992 63.3902 65.3073L63.5756 64.6329C63.7531 64.6764 63.9208 64.6738 64.0785 64.6251C64.2362 64.5823 64.3765 64.5008 64.4995 64.3805C64.7094 64.1751 64.8158 63.9359 64.8188 63.663C64.8247 63.3931 64.7162 63.1442 64.4932 62.9163C64.2702 62.6884 64.0238 62.5715 63.7539 62.5656C63.4839 62.5656 63.2425 62.6698 63.0296 62.8781C62.9066 62.9984 62.8206 63.1354 62.7714 63.2892C62.7222 63.4488 62.7174 63.6179 62.757 63.7963L62.0787 63.9669C61.9957 63.696 61.9957 63.4231 62.0788 63.1481C62.1618 62.879 62.3203 62.6301 62.5542 62.4012Z" fill="#0C6C97"/>
<path d="M61.1901 66.6193C60.8525 66.8822 60.5351 67.0072 60.2378 66.9941C59.9371 66.9837 59.6785 66.8394 59.462 66.5614C59.2351 66.2702 59.1591 65.9677 59.234 65.6542C59.3088 65.3407 59.5279 65.045 59.8913 64.7674L61.1363 63.8056L63.2012 66.4567L62.5806 66.9401L61.9039 66.0713L61.1901 66.6193ZM60.3016 65.1816C60.117 65.32 60.0077 65.4664 59.9735 65.6206C59.9394 65.7748 59.9817 65.928 60.1002 66.0802C60.2163 66.2292 60.3477 66.3023 60.4945 66.2996C60.6413 66.297 60.8103 66.2238 61.0015 66.0802L61.5714 65.6443L60.8715 64.7457L60.3016 65.1816Z" fill="#0C6C97"/>
<path d="M56.8263 70.5883C56.5454 70.7392 56.265 70.8113 55.9852 70.8045C55.7073 70.8014 55.4516 70.7244 55.2182 70.5736C54.9811 70.4248 54.7881 70.2118 54.6391 69.9346C54.4863 69.6501 54.4168 69.3612 54.4307 69.0679C54.4466 68.7784 54.5419 68.5082 54.7166 68.2571C54.8913 68.0061 55.132 67.7982 55.4387 67.6334C55.9524 67.3574 56.441 67.314 56.9046 67.5031C57.3681 67.6922 57.7716 68.1064 58.1151 68.7457C58.4348 69.3407 58.5605 69.8804 58.4921 70.3648C58.4238 70.8492 58.157 71.2878 57.6917 71.6807L56.4748 72.7131L56.0415 72.1458L57.1517 71.2207C57.4705 70.9542 57.6709 70.6846 57.753 70.4119C57.8351 70.1392 57.8046 69.8341 57.6614 69.4967C57.6137 69.7271 57.5185 69.9355 57.3757 70.1217C57.2348 70.3117 57.0517 70.4672 56.8263 70.5883ZM55.7229 68.2022C55.4679 68.3392 55.3065 68.5307 55.2386 68.7767C55.169 69.0284 55.2028 69.2818 55.3398 69.5368C55.4768 69.7918 55.6664 69.9542 55.9087 70.024C56.1473 70.0959 56.3942 70.0633 56.6492 69.9263C56.9079 69.7873 57.075 69.5975 57.1505 69.3569C57.226 69.1163 57.1953 68.8685 57.0583 68.6135C56.9193 68.3548 56.7266 68.1868 56.4804 68.1096C56.2304 68.0344 55.9779 68.0652 55.7229 68.2022Z" fill="#0C6C97"/>
<path d="M54.0094 72.141L53.2826 72.442L51.9967 69.3374L52.7235 69.0364L54.0094 72.141ZM53.855 72.8044C53.9868 72.7498 54.1141 72.7447 54.237 72.7892C54.3614 72.8376 54.4494 72.9237 54.5007 73.0478C54.5521 73.1718 54.5501 73.293 54.4946 73.4113C54.4408 73.5335 54.348 73.6219 54.2162 73.6765C54.0844 73.7311 53.9571 73.7361 53.8342 73.6916C53.713 73.651 53.6275 73.5707 53.5777 73.4505C53.5247 73.3226 53.5244 73.1956 53.5766 73.0695C53.6265 72.949 53.7193 72.8606 53.855 72.8044Z" fill="#0C6C97"/>
<path d="M49.0555 73.8922L48.0544 70.6844L48.8053 70.4501L49.6077 73.0211L50.8091 72.6462L50.6404 72.0001C50.528 71.5693 50.4568 71.2004 50.4269 70.8933C50.3942 70.5915 50.4217 70.3346 50.5094 70.1226C50.5943 69.9159 50.7569 69.7751 50.9972 69.7001C51.1094 69.6651 51.2544 69.644 51.4323 69.6368L51.5931 70.2788C51.5333 70.2843 51.4834 70.2933 51.4433 70.3058C51.2912 70.3533 51.1958 70.449 51.1572 70.5929C51.1198 70.7408 51.1174 70.902 51.1498 71.0764C51.1796 71.2561 51.2358 71.5067 51.3185 71.828L51.6506 73.0824L49.0555 73.8922Z" fill="#0C6C97"/>
<path d="M45.2928 73.401C44.8721 73.4796 44.5327 73.4448 44.2746 73.2967C44.0124 73.1493 43.8489 72.9025 43.7842 72.5561C43.7164 72.1932 43.7877 71.8896 43.9982 71.6454C44.2087 71.4013 44.539 71.2393 44.9893 71.1594L46.537 70.8768L47.1539 74.1801L46.3807 74.3245L46.1785 73.242L45.2928 73.401ZM45.1637 71.7158C44.9361 71.7541 44.7717 71.8339 44.6706 71.9552C44.5695 72.0765 44.5367 72.232 44.5721 72.4217C44.6068 72.6073 44.6899 72.7326 44.8216 72.7976C44.9532 72.8627 45.137 72.8753 45.3728 72.8355L46.0791 72.71L45.87 71.5903L45.1637 71.7158Z" fill="#0C6C97"/>
<path d="M37.7996 75.1632L37.6829 71.8048L42.6325 71.6328L42.7492 74.9912L41.963 75.0185L41.8695 72.3268L40.5677 72.372L40.6612 75.0638L39.8751 75.0911L39.7815 72.3993L38.4922 72.4441L38.5858 75.1359L37.7996 75.1632Z" fill="#0C6C97"/>
<path d="M33.2602 73.0031C33.2665 72.9489 33.2796 72.8723 33.2996 72.7733L35.9187 73.0775C35.9014 72.8263 35.8054 72.6166 35.6306 72.4485C35.4512 72.2841 35.2177 72.1852 34.9302 72.1518C34.5635 72.1092 34.2473 72.1949 33.9817 72.409L33.6188 71.8791C33.7896 71.7173 33.995 71.6039 34.2348 71.5388C34.4747 71.4738 34.7384 71.458 35.0259 71.4914C35.3926 71.5339 35.7071 71.6444 35.9694 71.8227C36.2317 72.001 36.4249 72.2282 36.5491 72.5045C36.6686 72.7845 36.7092 73.0891 36.671 73.4183C36.6332 73.7433 36.5264 74.0266 36.3506 74.268C36.1701 74.5131 35.9401 74.6933 35.6606 74.8087C35.3811 74.9241 35.0768 74.9626 34.7475 74.9244C34.4225 74.8866 34.1413 74.7801 33.9041 74.6047C33.6622 74.433 33.4856 74.2076 33.3744 73.9287C33.2586 73.6533 33.2205 73.3448 33.2602 73.0031ZM34.8202 74.2993C35.0702 74.3283 35.2914 74.278 35.4839 74.1483C35.6717 74.0223 35.7986 73.8386 35.8647 73.597L33.9706 73.3771C33.9759 73.6226 34.0553 73.8303 34.2087 74.0002C34.3621 74.1701 34.5659 74.2698 34.8202 74.2993Z" fill="#0C6C97"/>
<path d="M27.2178 73.2572L28.1702 70.0346L28.9185 70.2557L28.1551 72.8387L29.7423 73.3078L30.5057 70.7248L31.26 70.9478L30.3076 74.1704L27.2178 73.2572Z" fill="#0C6C97"/>
<path d="M23.9191 71.9887C23.6206 71.8545 23.384 71.6699 23.209 71.4349C23.0303 71.1981 22.9273 70.931 22.9 70.6336C22.8728 70.3361 22.9288 70.0324 23.0682 69.7225C23.2075 69.4126 23.3983 69.1672 23.6406 68.9863C23.8812 68.8093 24.1494 68.7091 24.4451 68.6856C24.737 68.6605 25.0322 68.715 25.3306 68.8492C25.7439 69.035 26.0091 69.3198 26.1263 69.7037L26.7946 68.2172L27.5121 68.5397L25.6335 72.7181L24.9505 72.411L25.1311 72.0092C24.9471 72.1013 24.7527 72.145 24.5478 72.1403C24.3391 72.1338 24.1296 72.0833 23.9191 71.9887ZM25.1349 69.4994C24.8709 69.3807 24.6151 69.3715 24.3676 69.4719C24.1163 69.5705 23.9261 69.7632 23.7971 70.0502C23.6681 70.3372 23.6501 70.6074 23.7431 70.8608C23.8324 71.1125 24.009 71.2977 24.273 71.4164C24.4452 71.4938 24.6182 71.5233 24.7921 71.5049C24.9642 71.4903 25.1232 71.4284 25.2689 71.3191C25.4146 71.2098 25.5305 71.0595 25.6165 70.8682C25.7025 70.6769 25.7381 70.4905 25.7231 70.309C25.7081 70.1274 25.6498 69.9655 25.5482 69.8232C25.4448 69.6848 25.3071 69.5769 25.1349 69.4994Z" fill="#0C6C97"/>
<path d="M21.5865 66.8794C21.8758 67.0576 22.0981 67.2807 22.2533 67.5487C22.4085 67.8167 22.484 68.1022 22.4798 68.405C22.4698 68.7093 22.3779 69.0025 22.2041 69.2847C22.0303 69.5669 21.8109 69.7792 21.5459 69.9215C21.2774 70.0615 20.9885 70.1226 20.6793 70.1046C20.3701 70.0867 20.0708 69.9886 19.7815 69.8104C19.4886 69.63 19.2645 69.4058 19.1093 69.1378C18.9541 68.8698 18.8804 68.5854 18.8882 68.2848C18.8924 67.9819 18.9814 67.6893 19.1552 67.4071C19.329 67.1249 19.5513 66.912 19.822 66.7683C20.087 66.6261 20.3741 66.5639 20.6833 66.5819C20.9925 66.5998 21.2936 66.699 21.5865 66.8794ZM21.2334 67.4527C20.9869 67.3009 20.7327 67.2577 20.4708 67.323C20.2088 67.3884 19.9954 67.555 19.8304 67.8229C19.6654 68.0908 19.6127 68.3564 19.6722 68.6198C19.7318 68.8831 19.8848 69.0906 20.1313 69.2424C20.3778 69.3942 20.632 69.4374 20.8939 69.3721C21.1523 69.3046 21.364 69.1369 21.529 68.8689C21.694 68.601 21.7485 68.3365 21.6925 68.0754C21.6329 67.8121 21.4799 67.6045 21.2334 67.4527Z" fill="#0C6C97"/>
<path d="M14.8039 65.8876C14.565 65.6765 14.4002 65.4385 14.3095 65.1736C14.216 64.9119 14.1995 64.6455 14.26 64.3742C14.3174 64.1002 14.4502 63.8453 14.6586 63.6095C14.8724 63.3674 15.1193 63.202 15.3992 63.1134C15.6762 63.0279 15.9628 63.0235 16.2588 63.1003C16.5548 63.1771 16.8333 63.3308 17.0943 63.5614C17.5313 63.9475 17.7415 64.3907 17.7249 64.891C17.7083 65.3914 17.4597 65.9135 16.9792 66.4574C16.532 66.9636 16.0693 67.2687 15.5913 67.3725C15.1133 67.4764 14.6093 67.3783 14.0796 67.0782L12.6892 66.2948L13.0709 65.6916L14.3237 66.4122C14.6842 66.6187 15.0066 66.7132 15.2908 66.6956C15.5751 66.678 15.8506 66.5436 16.1174 66.2923C15.8848 66.3275 15.6564 66.3104 15.4321 66.2411C15.2051 66.1749 14.9957 66.057 14.8039 65.8876ZM16.6593 64.0252C16.4424 63.8335 16.2068 63.7485 15.9525 63.7702C15.6923 63.7922 15.4664 63.9117 15.2747 64.1287C15.0831 64.3456 14.9965 64.5798 15.015 64.8313C15.0304 65.08 15.1466 65.3002 15.3635 65.4919C15.5836 65.6863 15.8195 65.7772 16.0714 65.7646C16.3233 65.752 16.545 65.6372 16.7367 65.4203C16.9311 65.2002 17.0218 64.9613 17.0089 64.7035C16.9928 64.4429 16.8762 64.2168 16.6593 64.0252Z" fill="#0C6C97"/>
<path d="M11.2984 62.6501C11.0835 62.4033 10.9458 62.1366 10.8854 61.8499C10.8222 61.5601 10.8404 61.2744 10.9402 60.9928C11.0399 60.7113 11.218 60.459 11.4743 60.2358C11.7306 60.0127 12.0066 59.8697 12.3023 59.8069C12.5949 59.7469 12.8804 59.7681 13.1588 59.8706C13.4344 59.97 13.6797 60.1431 13.8945 60.3899C14.1921 60.7316 14.3137 61.1013 14.2594 61.499L15.4887 60.4287L16.0052 61.022L12.55 64.0302L12.0582 63.4654L12.3905 63.1762C12.1848 63.1828 11.99 63.141 11.8059 63.051C11.6191 62.9578 11.4499 62.8242 11.2984 62.6501ZM13.4445 60.8984C13.2545 60.6801 13.026 60.5647 12.7593 60.5522C12.4898 60.5365 12.2364 60.632 11.9991 60.8386C11.7617 61.0452 11.6323 61.2831 11.6107 61.5522C11.5864 61.8181 11.6692 62.0602 11.8593 62.2786C11.9833 62.421 12.1281 62.5202 12.2937 62.5762C12.4561 62.635 12.6264 62.6453 12.8045 62.6071C12.9826 62.5689 13.1507 62.4809 13.3089 62.3431C13.4671 62.2054 13.5774 62.051 13.6398 61.8798C13.7022 61.7087 13.7171 61.5373 13.6843 61.3655C13.6484 61.1965 13.5685 61.0408 13.4445 60.8984Z" fill="#0C6C97"/>
<path d="M9.02292 56.66C9.06828 56.6297 9.13516 56.5901 9.22356 56.5411L10.6876 58.7341C10.8678 58.5583 10.9654 58.3493 10.9804 58.1073C10.9895 57.8641 10.9138 57.6221 10.753 57.3814C10.548 57.0743 10.278 56.8889 9.94282 56.8252L10.1117 56.2055C10.3456 56.2309 10.565 56.3139 10.7699 56.4546C10.9748 56.5953 11.1576 56.786 11.3183 57.0267C11.5233 57.3338 11.6427 57.6449 11.6767 57.9602C11.7106 58.2755 11.6625 58.57 11.5324 58.8435C11.3965 59.1158 11.1907 59.344 10.915 59.5281C10.6429 59.7098 10.3578 59.8118 10.06 59.8341C9.75632 59.8552 9.47004 59.7966 9.20117 59.6583C8.93229 59.5201 8.70585 59.3131 8.52182 59.0374C8.34013 58.7653 8.23929 58.482 8.21932 58.1877C8.19353 57.8921 8.25094 57.6117 8.39156 57.3463C8.52635 57.0797 8.73681 56.851 9.02292 56.66ZM9.04519 58.688C9.18496 58.8974 9.36656 59.0334 9.59001 59.0961C9.80764 59.1576 10.0299 59.1354 10.2567 59.0293L9.19797 57.4435C9.01423 57.6065 8.90731 57.8015 8.87721 58.0284C8.84711 58.2553 8.9031 58.4752 9.04519 58.688Z" fill="#0C6C97"/>
<path d="M6.92791 56.464L6.57891 55.7591L7.80271 55.1532L7.05167 53.6362L5.82786 54.242L5.47886 53.5371L8.49044 52.0461L8.83944 52.7511L7.64947 53.3402L8.40052 54.8573L9.59048 54.2682L9.93948 54.9731L6.92791 56.464Z" fill="#0C6C97"/>
<path d="M6.24674 47.8062L7.58847 47.3539L7.82366 48.0516L7.11403 48.2908L7.94221 50.7477L8.65183 50.5085L8.88501 51.2002L7.54328 51.6525L7.49303 51.5034C7.41673 51.3034 7.2413 51.2098 6.96672 51.2226C6.68682 51.2329 6.31228 51.3038 5.84308 51.4354L4.73774 51.7615L3.85327 49.1376L6.40554 48.2773L6.24674 47.8062ZM5.66759 50.7375C6.0387 50.6301 6.34691 50.5594 6.59223 50.5254C6.83755 50.4914 7.0353 50.5133 7.18548 50.591L6.65681 49.0227L4.73665 49.67L5.14872 50.8924L5.66759 50.7375Z" fill="#0C6C97"/>
</svg>
