<svg width="101" height="24" viewBox="0 0 101 24" fill="none" xmlns="http://www.w3.org/2000/svg">
<path fill-rule="evenodd" clip-rule="evenodd" d="M18.3727 9.3313L14.5114 20.8423C13.9406 22.555 12.3836 23.6448 10.5775 23.6033C8.84414 23.5618 7.38061 22.4719 6.84087 20.8216L5.66797 17.251C5.86518 17.4171 6.05202 17.5624 6.24923 17.6869C6.90315 18.1125 7.5882 18.3408 8.23174 18.3824C8.89604 18.4239 9.50844 18.2786 9.99628 17.9568C10.4737 17.6454 10.8267 17.1783 10.9927 16.5867L15.8608 2.06555C16.2864 0.809612 17.4074 0 18.7359 0H19.1615C20.4901 0 21.6215 0.809612 22.0367 2.06555L26.9047 16.5867C27.0604 17.1783 27.4237 17.6454 27.9012 17.9568C28.389 18.2786 29.0118 18.4239 29.6657 18.3824C30.2989 18.3408 30.9839 18.1125 31.6482 17.6869C31.8454 17.5624 32.0323 17.4171 32.2295 17.251L31.0566 20.8216C30.5169 22.4719 29.0533 23.5618 27.3199 23.6033C25.5139 23.6448 23.9569 22.555 23.386 20.8423L19.5248 9.3313C19.4418 9.08219 19.2134 8.91612 18.9539 8.91612C18.6841 8.9265 18.4557 9.08219 18.3727 9.3313Z" fill="#084572"/>
<path fill-rule="evenodd" clip-rule="evenodd" d="M37.8954 0H34.439C33.1 0 31.9582 0.830374 31.5534 2.10707L27.6299 14.3343C27.3912 15.0816 27.7545 16.6593 28.4499 17.116C28.7613 17.3133 29.1557 17.4067 29.602 17.3755C30.0691 17.3444 30.5881 17.1679 31.0967 16.8358C31.979 16.2649 32.8924 15.2373 33.4217 13.6181L37.8954 0Z" fill="#084572"/>
<path fill-rule="evenodd" clip-rule="evenodd" d="M0 0L4.47363 13.6285C5.00299 15.2477 5.9164 16.2649 6.79867 16.8462C7.30727 17.1783 7.82625 17.3548 8.29334 17.3859C8.73966 17.4171 9.14447 17.3236 9.44548 17.1264C10.1409 16.6801 10.5042 15.092 10.2655 14.3447L6.34197 2.11745C5.93716 0.840751 4.7954 0.0103803 3.45642 0.0103803H0V0Z" fill="#084572"/>
<path fill-rule="evenodd" clip-rule="evenodd" d="M57.6272 19.3062V21.6727C57.6272 22.7937 56.7138 23.7071 55.5928 23.7071H43.3344C41.0924 23.7071 39.2656 21.8803 39.2656 19.6383V18.6211C39.2656 17.5105 39.795 16.6178 40.6046 15.9847C41.5595 15.2373 42.8881 14.8325 44.2063 14.8325H44.7149V17.2717C44.7149 18.3927 45.6284 19.3062 46.7494 19.3062H57.6272Z" fill="#084572"/>
<path fill-rule="evenodd" clip-rule="evenodd" d="M39.2754 15.8805C39.483 15.6314 39.7217 15.4031 39.9812 15.1955C41.1126 14.3028 42.6799 13.815 44.2161 13.815H44.7247H50.8176H53.6927C54.8137 13.815 55.7271 12.9016 55.7271 11.7806V9.54895H50.8176H44.7247H44.2161C42.6799 9.54895 41.1126 9.06111 39.9812 8.16846C39.7217 7.96086 39.483 7.73251 39.2754 7.4834V15.8805Z" fill="#084572"/>
<path fill-rule="evenodd" clip-rule="evenodd" d="M39.2773 4.74386V4.06918C39.2773 1.82718 41.1042 0.0107422 43.3462 0.0107422H57.1926V2.3773C57.1926 3.4983 56.2792 4.41171 55.1582 4.41171H46.7611C45.6401 4.41171 44.7267 5.32512 44.7267 6.44612V8.54281H44.2181C42.8895 8.54281 41.5609 8.138 40.6163 7.39067C39.8067 6.74713 39.2773 5.85448 39.2773 4.74386Z" fill="#084572"/>
<path fill-rule="evenodd" clip-rule="evenodd" d="M61.2819 0.0205078H63.7107C65.3818 0.0205078 66.7519 1.39062 66.7519 3.06174V18.2057H66.2433C64.9978 18.2057 63.6484 17.6555 62.6727 16.5864C61.8424 15.673 61.2819 14.3859 61.2819 12.7252V0.0205078ZM66.7519 19.2229H66.2433C64.7383 19.2229 63.1087 18.5586 61.9254 17.2715C61.6867 17.012 61.4687 16.7317 61.2715 16.4204V19.6277C61.2715 21.8593 63.0983 23.6861 65.3299 23.6861H78.6159V22.2641C78.6159 20.593 77.2458 19.2229 75.5746 19.2229H66.7519Z" fill="#084572"/>
<path fill-rule="evenodd" clip-rule="evenodd" d="M94.7146 17.1164C94.6938 20.2303 93.0019 22.628 90.5835 23.7697C92.5452 23.7282 94.2267 23.4168 95.628 22.8252C97.1434 22.192 98.2748 21.3409 99.0325 20.2614C99.7902 19.1819 100.164 17.9883 100.164 16.6804C100.164 15.1546 99.7487 13.9402 98.9287 13.0476C98.1087 12.1549 97.1227 11.501 95.9705 11.0858C94.8184 10.6706 93.3445 10.2554 91.5384 9.84025C89.805 9.46658 88.5076 9.09291 87.6668 8.70886C86.826 8.32481 86.4005 7.74355 86.4005 6.9547C86.4005 6.93394 86.4005 6.91318 86.4005 6.89242C86.4212 3.70587 88.2688 1.21475 90.8118 0.09375C88.6944 0.10413 86.9091 0.425899 85.4352 1.0383C83.9301 1.67146 82.8091 2.52259 82.0722 3.60207C81.3248 4.68156 80.9512 5.8856 80.9512 7.21419C80.9512 8.74 81.3664 9.9648 82.1863 10.8782C83.0063 11.7916 83.9924 12.4559 85.1445 12.8711C86.2967 13.2863 87.7706 13.7015 89.5767 14.1167C90.7496 14.3762 91.6837 14.6149 92.3688 14.8329C93.0538 15.0508 93.6247 15.3415 94.0607 15.7047C94.4966 16.068 94.725 16.5144 94.725 17.0645C94.7146 17.0852 94.7146 17.0956 94.7146 17.1164Z" fill="#084572"/>
<path fill-rule="evenodd" clip-rule="evenodd" d="M93.4371 0.166343C94.0807 0.0417873 96.3953 -0.394158 98.108 0.996715C98.274 1.13165 99.696 2.28379 99.4469 3.49821C99.1978 4.74377 97.3502 5.44958 95.9386 5.50148C93.9457 5.57414 93.2814 4.28706 91.2678 4.16251C90.3336 4.11061 88.9946 4.2663 87.3027 5.32503C87.6141 4.69187 89.5551 0.892918 93.4371 0.166343Z" fill="#084572"/>
<path fill-rule="evenodd" clip-rule="evenodd" d="M87.4275 23.8315C86.7424 23.9561 84.2617 24.4232 82.4348 22.9389C82.2584 22.7936 80.743 21.5688 81.0025 20.2609C81.2723 18.9323 83.2445 18.1746 84.7495 18.1227C86.8773 18.0397 87.5831 19.4202 89.7421 19.5551C90.7386 19.6174 92.171 19.441 93.977 18.32C93.6449 18.9946 91.5689 23.0531 87.4275 23.8315Z" fill="#084572"/>
</svg>
